<svg id="Layer_1" enable-background="new 0 0 256 256" height="512" viewBox="0 0 256 256" width="512" xmlns="http://www.w3.org/2000/svg"><g><g><ellipse cx="144.633" cy="99.212" fill="#af5f40" rx="89.603" ry="89.603" transform="matrix(.707 -.707 .707 .707 -27.792 131.33)"/></g><g><path d="m144.633 9.609c-1.678 0-3.344.05-5 .141 47.16 2.594 84.603 41.654 84.603 89.462s-37.443 86.868-84.603 89.462c1.656.091 3.322.141 5 .141 49.486 0 89.603-40.117 89.603-89.603.001-49.486-40.116-89.603-89.603-89.603z" fill="#914122"/></g><g><path d="m144.633 188.816c1.678 0 3.344-.05 5-.141-47.16-2.594-84.603-41.654-84.603-89.462s37.443-86.867 84.603-89.462c-1.656-.091-3.322-.141-5-.141-49.486 0-89.603 40.117-89.603 89.603s40.117 89.603 89.603 89.603z" fill="#cd7d5e"/></g><g><ellipse cx="144.633" cy="99.212" fill="#7bac51" rx="79.003" ry="79.003" transform="matrix(.156 -.988 .988 .156 24.03 226.557)"/></g><g><path d="m144.633 190.815c-50.51 0-91.603-41.093-91.603-91.603s41.093-91.603 91.603-91.603 91.604 41.093 91.604 91.604-41.093 91.602-91.604 91.602zm0-179.206c-48.305 0-87.603 39.299-87.603 87.604s39.298 87.603 87.603 87.603 87.604-39.298 87.604-87.603-39.299-87.604-87.604-87.604z" fill="#690589"/></g><g><path d="m144.633 180.215c-44.665 0-81.003-36.338-81.003-81.003 0-44.666 36.338-81.003 81.003-81.003s81.003 36.338 81.003 81.003-36.338 81.003-81.003 81.003zm0-158.006c-42.459 0-77.003 34.543-77.003 77.003s34.543 77.003 77.003 77.003 77.003-34.543 77.003-77.003-34.543-77.003-77.003-77.003z" fill="#690589"/></g><g><path d="m144.633 47.04c5.346 0 8.687 5.787 6.014 10.416l-6.014 10.416-6.014-10.416c-2.672-4.629.669-10.416 6.014-10.416z" fill="#fcc24c"/></g><g><path d="m144.633 69.873c-.714 0-1.375-.381-1.732-1l-6.014-10.416c-1.617-2.8-1.617-6.144-.001-8.944 1.617-2.8 4.513-4.472 7.746-4.472 3.234 0 6.129 1.672 7.746 4.472s1.617 6.144 0 8.944l-6.014 10.416c-.356.618-1.016 1-1.731 1zm0-20.833c-1.788 0-3.388.924-4.282 2.472s-.894 3.396 0 4.944l4.282 7.417 4.282-7.417c.894-1.548.894-3.396 0-4.944s-2.494-2.472-4.282-2.472z" fill="#690589"/></g><g><path d="m144.633 151.385c-5.346 0-8.687-5.787-6.014-10.416l6.014-10.416 6.014 10.416c2.673 4.629-.668 10.416-6.014 10.416z" fill="#fcc24c"/></g><g><path d="m144.633 153.385c-3.233 0-6.129-1.672-7.746-4.472s-1.617-6.144 0-8.944l6.014-10.416c.357-.619 1.017-1 1.732-1s1.375.381 1.732 1l6.014 10.416c1.617 2.8 1.617 6.143 0 8.944-1.616 2.8-4.512 4.472-7.746 4.472zm0-18.833-4.282 7.416c-.894 1.548-.894 3.396 0 4.944.893 1.548 2.495 2.472 4.282 2.472 1.788 0 3.388-.924 4.282-2.472s.894-3.396 0-4.944z" fill="#690589"/></g><g><path d="m196.806 99.212c0 5.346-5.787 8.687-10.416 6.014l-10.416-6.014 10.416-6.014c4.629-2.672 10.416.669 10.416 6.014z" fill="#fcc24c"/></g><g><path d="m189.862 108.171c-1.536 0-3.072-.404-4.472-1.213l-10.417-6.014c-.619-.357-1-1.017-1-1.732s.381-1.375 1-1.732l10.417-6.014c2.801-1.617 6.144-1.616 8.944 0 2.8 1.617 4.472 4.512 4.472 7.746 0 3.233-1.672 6.129-4.472 7.746-1.4.809-2.937 1.213-4.472 1.213zm-9.889-8.959 7.417 4.282c1.548.894 3.396.894 4.944 0s2.472-2.494 2.472-4.282-.924-3.388-2.472-4.282-3.396-.894-4.944 0z" fill="#690589"/></g><g><path d="m92.461 99.212c0-5.346 5.787-8.687 10.416-6.014l10.416 6.014-10.416 6.014c-4.629 2.673-10.416-.668-10.416-6.014z" fill="#fcc24c"/></g><g><path d="m99.405 108.171c-1.536 0-3.072-.404-4.472-1.213-2.8-1.617-4.472-4.512-4.472-7.746 0-3.233 1.672-6.129 4.472-7.746s6.144-1.617 8.944 0l10.416 6.014c.619.357 1 1.018 1 1.732s-.381 1.375-1 1.732l-10.416 6.014c-1.4.809-2.936 1.213-4.472 1.213zm0-13.911c-.849 0-1.698.223-2.472.67-1.548.894-2.472 2.495-2.472 4.282 0 1.788.924 3.388 2.472 4.282s3.397.893 4.945 0l7.416-4.282-7.416-4.282c-.775-.447-1.624-.67-2.473-.67z" fill="#690589"/></g><g><path d="m107.742 62.321c3.78-3.78 10.234-2.05 11.618 3.113l3.113 11.618-11.618-3.113c-5.164-1.384-6.893-7.838-3.113-11.618z" fill="#fcc24c"/></g><g><path d="m122.473 79.052c-.173 0-.347-.023-.518-.068l-11.618-3.113c-3.124-.836-5.488-3.201-6.325-6.324s.029-6.353 2.315-8.639c2.287-2.286 5.517-3.15 8.639-2.315 3.124.837 5.488 3.201 6.325 6.324l3.113 11.618c.185.69-.012 1.427-.518 1.932-.379.379-.89.585-1.413.585zm-9.843-16.769c-1.288 0-2.527.506-3.474 1.452-1.264 1.264-1.742 3.049-1.28 4.776s1.77 3.033 3.496 3.496l8.272 2.216-2.216-8.272c-.463-1.726-1.77-3.033-3.497-3.496-.433-.116-.87-.172-1.301-.172zm-4.888.038h.01z" fill="#690589"/></g><g><path d="m181.525 136.104c-3.78 3.78-10.234 2.051-11.618-3.113l-3.113-11.618 11.618 3.113c5.163 1.383 6.893 7.838 3.113 11.618z" fill="#fcc24c"/></g><g><path d="m176.655 140.146c-.781 0-1.571-.103-2.355-.313-3.124-.837-5.488-3.201-6.324-6.325l-3.113-11.618c-.185-.69.012-1.426.518-1.932.505-.506 1.243-.703 1.932-.518l11.618 3.113c3.124.837 5.487 3.201 6.324 6.325.837 3.123-.028 6.352-2.315 8.639-1.713 1.713-3.955 2.629-6.285 2.629zm-7.032-15.945 2.216 8.272c.463 1.727 1.769 3.034 3.496 3.496 1.725.463 3.511-.016 4.776-1.28 1.264-1.264 1.742-3.049 1.279-4.775-.462-1.727-1.77-3.034-3.496-3.497z" fill="#690589"/></g><g><path d="m181.525 62.321c3.78 3.78 2.051 10.234-3.113 11.618l-11.618 3.113 3.113-11.618c1.384-5.164 7.838-6.893 11.618-3.113z" fill="#fcc24c"/></g><g><path d="m166.794 79.052c-.523 0-1.034-.206-1.414-.586-.505-.505-.703-1.242-.518-1.932l3.113-11.618c.836-3.123 3.201-5.487 6.324-6.324 3.123-.835 6.354.029 8.639 2.315 2.287 2.286 3.152 5.516 2.315 8.639-.837 3.124-3.201 5.488-6.324 6.324l-11.618 3.113c-.17.046-.344.069-.517.069zm9.843-16.769c-.432 0-.869.057-1.302.173-1.727.462-3.033 1.769-3.496 3.496l-2.216 8.272 8.272-2.216c1.726-.463 3.033-1.77 3.496-3.496s-.016-3.512-1.279-4.776c-.948-.947-2.187-1.453-3.475-1.453z" fill="#690589"/></g><g><path d="m107.742 136.104c-3.78-3.78-2.051-10.234 3.113-11.618l11.618-3.113-3.113 11.618c-1.384 5.163-7.838 6.893-11.618 3.113z" fill="#fcc24c"/></g><g><path d="m112.612 140.146c-2.33 0-4.571-.915-6.284-2.628-2.287-2.286-3.152-5.516-2.315-8.639.837-3.124 3.201-5.488 6.325-6.325l11.618-3.113c.689-.186 1.426.012 1.932.518.505.505.703 1.242.518 1.932l-3.113 11.618c-.837 3.124-3.201 5.488-6.325 6.325-.785.209-1.576.311-2.356.312zm7.032-15.944-8.271 2.216c-1.727.463-3.034 1.77-3.496 3.497-.462 1.726.016 3.511 1.28 4.775v.001c1.264 1.264 3.05 1.743 4.775 1.28 1.727-.462 3.034-1.769 3.497-3.496z" fill="#690589"/></g><g><ellipse cx="144.633" cy="99.212" fill="#f4efed" rx="22.161" ry="22.161" transform="matrix(.164 -.987 .987 .164 23.053 225.625)"/></g><g><path d="m144.633 123.373c-13.322 0-24.161-10.838-24.161-24.161s10.838-24.161 24.161-24.161c13.322 0 24.161 10.838 24.161 24.161s-10.838 24.161-24.161 24.161zm0-44.321c-11.117 0-20.161 9.044-20.161 20.161s9.044 20.161 20.161 20.161 20.161-9.044 20.161-20.161-9.044-20.161-20.161-20.161z" fill="#690589"/></g><g><circle cx="80.897" cy="152.592" fill="#f9874e" r="76.897"/></g><g><path d="m13 152.592c0-40.958 32.024-74.425 72.397-76.756-1.49-.086-2.988-.141-4.5-.141-42.469-.001-76.897 34.427-76.897 76.897s34.428 76.898 76.897 76.898c1.512 0 3.01-.055 4.5-.141-40.373-2.333-72.397-35.8-72.397-76.757z" fill="#ffa56c"/></g><g><path d="m148.795 152.592c0 40.958-32.024 74.425-72.398 76.756 1.49.086 2.988.141 4.5.141 42.469 0 76.898-34.428 76.898-76.898s-34.428-76.897-76.898-76.897c-1.512 0-3.01.055-4.5.141 40.374 2.332 72.398 35.799 72.398 76.757z" fill="#db6930"/></g><g><path d="m80.897 231.489c-43.504 0-78.897-35.393-78.897-78.897s35.393-78.897 78.897-78.897 78.897 35.393 78.897 78.897-35.392 78.897-78.897 78.897zm0-153.795c-41.298 0-74.897 33.599-74.897 74.898s33.599 74.898 74.897 74.898c41.299 0 74.897-33.599 74.897-74.898s-33.598-74.898-74.897-74.898z" fill="#690589"/></g><g><path d="m12.749 155.454c-1.104 0-2-.896-2-2 0-4.096.267-8.22.793-12.258.143-1.095 1.136-1.865 2.242-1.725 1.095.143 1.868 1.146 1.725 2.242-.504 3.867-.759 7.818-.759 11.742-.001 1.104-.896 1.999-2.001 1.999z" fill="#690589"/></g><g><path d="m131.553 53.878c-.304-1.14-1.195-2.03-2.335-2.335-12.879-3.435-26.724.272-36.131 9.681-9.409 9.408-13.118 23.252-9.682 36.131.305 1.14 1.195 2.03 2.335 2.335 3.176.847 6.411 1.26 9.624 1.26 9.814 0 19.42-3.853 26.507-10.941 9.408-9.408 13.117-23.252 9.682-36.131z" fill="#7bac51"/></g><g><path d="m131.553 53.878c-.304-1.14-1.195-2.03-2.335-2.335-4.144-1.105-8.387-1.467-12.551-1.142 2.247.175 4.494.55 6.711 1.142 1.14.305 2.031 1.195 2.335 2.335 3.435 12.879-.274 26.723-9.682 36.131-6.378 6.379-14.798 10.127-23.572 10.815.969.075 1.938.126 2.905.126 9.814 0 19.42-3.853 26.507-10.941 9.408-9.408 13.117-23.252 9.682-36.131z" fill="#5d8e33"/></g><g><path d="m95.364 102.95c-3.426 0-6.837-.447-10.14-1.327-1.827-.489-3.264-1.926-3.752-3.751-3.62-13.567.288-28.152 10.2-38.062 9.908-9.911 24.492-13.818 38.061-10.2 1.828.489 3.265 1.927 3.752 3.752 3.619 13.566-.29 28.151-10.2 38.061-7.324 7.326-17.501 11.527-27.921 11.527zm24.228-50.668c-9.292 0-18.383 3.646-25.091 10.355-8.906 8.905-12.417 22.01-9.164 34.202.119.447.472.799.92.919 2.964.791 6.029 1.192 9.107 1.192 9.367 0 18.513-3.774 25.092-10.355 8.905-8.905 12.416-22.01 9.164-34.202-.119-.447-.472-.799-.919-.919-3.006-.801-6.069-1.192-9.109-1.192z" fill="#690589"/></g><g><path d="m84.573 100.522c-.512 0-1.024-.195-1.414-.586-.781-.781-.781-2.047 0-2.828l28.717-28.717c.78-.781 2.048-.781 2.828 0 .781.781.781 2.047 0 2.828l-28.717 28.718c-.39.39-.903.585-1.414.585z" fill="#690589"/></g><g><path d="m224.48 140.786s-55.387 52.684-134.576 7.237c-3.167-1.817-7.162-1.282-9.737 1.306-2.577 2.589-3.089 6.579-1.265 9.744 7.371 12.791 29.054 43.77 69.008 50.094 50.639 8.015 80.777-36.115 88.046-61.875z" fill="#fcc24c"/></g><g><path d="m159.847 212.124c-3.952 0-8.032-.314-12.249-.982-40.718-6.445-62.817-37.863-70.429-51.072-2.27-3.94-1.62-8.937 1.581-12.153 3.208-3.224 8.204-3.894 12.15-1.63 40.277 23.116 74.104 19.966 95.387 13.251 23.038-7.267 36.68-20.074 36.815-20.203.639-.607 1.599-.725 2.365-.29l11.476 6.506c.801.454 1.189 1.396.939 2.283-7.428 26.321-34.661 64.287-78.035 64.29zm-73.955-63.17c-1.578 0-3.139.612-4.307 1.786-1.93 1.939-2.321 4.955-.95 7.334 7.325 12.711 28.573 42.942 67.588 49.118 27.266 4.313 46.937-7.29 58.639-17.785 14.319-12.844 23.083-29.384 26.726-41.158l-8.842-5.013c-3.777 3.273-16.87 13.689-37.255 20.119-22.048 6.955-57.047 10.24-98.581-13.597-.943-.541-1.984-.804-3.018-.804z" fill="#690589"/></g><g><path d="m228.094 138.707s-47.258 70.175-143.701 39.996c-3.857-1.207-8.046.327-10.211 3.739-2.166 3.414-1.765 7.848.963 10.832 11.024 12.06 41.862 40.355 86.551 37.636 56.639-3.445 78.658-58.341 80.354-87.916z" fill="#fcc24c"/></g><g><path d="m155.685 233.093c-42.137.002-71.17-26.605-82.015-38.47-3.331-3.643-3.814-9.093-1.176-13.252 2.645-4.169 7.784-6.053 12.496-4.577 49.039 15.346 84.852 3.895 106.26-8.412 23.254-13.369 35.069-30.62 35.186-30.793.492-.729 1.404-1.052 2.246-.794l13.957 4.287c.88.27 1.462 1.107 1.409 2.026-1.887 32.899-25.88 86.37-82.229 89.797-2.073.127-4.121.188-6.134.188zm-73.953-52.798c-2.328 0-4.565 1.177-5.86 3.218-1.674 2.639-1.365 6.097.75 8.411 10.976 12.008 41.232 39.638 84.954 36.989 30.58-1.86 49.114-19.151 59.277-33.328 12.481-17.412 18.002-37.518 19.094-51.146l-11.061-3.397c-3.161 4.278-14.821 18.796-35.476 30.712-22.125 12.765-59.103 24.663-109.613 8.857-.682-.213-1.378-.316-2.065-.316z" fill="#690589"/></g><g><path d="m229.68 125.91s-25.998 85.661-132.921 85.099c-4.276-.023-8.037 2.83-9.166 6.954-1.13 4.126.653 8.486 4.339 10.657 14.897 8.774 54.879 27.811 99.236 11.177 56.218-21.082 61.433-83.447 53.961-113.888h-15.449z" fill="#fcc24c"/></g><g><path d="m245.129 125.91h-10c7.473 30.441 2.257 92.806-53.961 113.888-10.84 4.065-21.415 5.989-31.43 6.464 12.859.59 26.906-1.017 41.43-6.464 56.218-21.082 61.433-83.447 53.961-113.888z" fill="#dea42e"/></g><g><path d="m154.693 248.396c-29.079.001-52.835-11.608-63.776-18.053-4.456-2.624-6.615-7.932-5.253-12.909 1.361-4.969 5.897-8.426 11.045-8.426h.061c.339.002.678.003 1.016.003 53.899 0 86.326-22.642 104.067-41.704 19.326-20.766 25.85-41.769 25.914-41.979.255-.843 1.033-1.419 1.914-1.419h15.449c.921 0 1.723.629 1.942 1.523 3.579 14.579 4.632 38.409-3.143 61.567-6.159 18.344-20.19 42.72-52.058 54.67-12.926 4.849-25.485 6.726-37.178 6.727zm-57.984-35.387c-3.35 0-6.302 2.249-7.187 5.482-.887 3.239.521 6.695 3.425 8.406 14.846 8.744 54.068 27.321 97.519 11.028 30.395-11.398 43.788-34.677 49.67-52.198 7.237-21.556 6.556-43.681 3.407-57.817h-12.42c-1.819 5.195-9.081 23.575-26.342 42.123-18.397 19.768-52.038 43.294-108.032 42.976-.013 0-.027 0-.04 0z" fill="#690589"/></g><g><path d="m229.68 125.91v-29.422c0-2.187 1.773-3.959 3.959-3.959h14.399c2.556 0 4.442 2.386 3.852 4.873l-6.763 28.508z" fill="#7bac51"/></g><g><path d="m248.039 92.529h-9c2.556 0 4.442 2.386 3.852 4.873l-6.763 28.508h9l6.763-28.508c.59-2.487-1.296-4.873-3.852-4.873z" fill="#5d8e33"/></g><g><path d="m245.129 127.91h-15.449c-1.105 0-2-.896-2-2v-29.422c0-3.286 2.673-5.96 5.959-5.96h14.4c1.834 0 3.538.825 4.675 2.264s1.547 3.287 1.123 5.072l-6.762 28.508c-.214.901-1.019 1.538-1.946 1.538zm-13.449-4h11.868l6.397-26.97c.139-.587.004-1.195-.369-1.668-.374-.473-.934-.744-1.537-.744h-14.4c-1.081 0-1.959.879-1.959 1.96z" fill="#690589"/></g></g></svg>