<svg id="Layer_1" enable-background="new 0 0 256 256" height="512" viewBox="0 0 256 256" width="512" xmlns="http://www.w3.org/2000/svg"><g><path d="m226.849 38.146c-1.244 1.102-2.434 2.15-3.571 3.163l-42.561 37.746-26.393-26.393 10.065-11.353 30.843-34.779c1.697-1.91 4.655-1.999 6.467-.187l25.345 25.345c1.804 1.803 1.715 4.762-.195 6.458z" fill="#efefef"/><path d="m223.278 41.309-42.562 37.747-26.393-26.394 10.065-11.353z" fill="#f9e5af"/><path d="m140.055 62.494 14.263-9.827 26.395 26.395-9.827 14.263c-1.372 1.992-4.214 2.251-5.924.541l-25.449-25.449c-1.709-1.709-1.45-4.551.542-5.923z" fill="#7c7b7a"/><path d="m163.754 53.951c-1.032-.916-1.127-2.496-.211-3.529l23.775-26.81c.916-1.032 2.495-1.129 3.529-.211 1.032.916 1.127 2.496.211 3.529l-23.775 26.81c-.916 1.033-2.496 1.128-3.529.211zm32.068-33.661c-.59 0-1.182-.207-1.658-.63-1.032-.916-1.127-2.496-.211-3.529l2.654-2.993c.915-1.032 2.495-1.129 3.529-.211 1.032.916 1.127 2.496.211 3.529l-2.654 2.993c-.493.557-1.18.841-1.871.841z" fill="#fff"/><path d="m175.751 233.831v12.13c0 2.761-2.239 5-5 5h-85.5c-2.761 0-5-2.239-5-5v-12.13c1.4.09 2.81.14 4.23.14h87.04c1.42 0 2.83-.05 4.23-.14z" fill="#878787"/><path d="m224.711 170.151h-190c0-28.754 33.151-35.201 45.61-15.02 4-6.43 11.6-9.84 19.29-8.15-6.946-28.154 36.155-37.491 41.6-9.17 9.68-4.69 21.15.01 24.87 9.97 6.13-7.25 17.81-5.14 21.02 3.8 15-12.09 37.61-.9 37.61 18.57z" fill="#f9e5af"/><path d="m230.111 170.151h-5.4-190-8.82c-2.92 0-5.24 2.5-4.99 5.41 2.737 32.733 30.173 58.41 63.58 58.41h87.04c1.42 0 2.83-.05 4.23-.14 31.389-2.048 56.711-26.852 59.35-58.26.25-2.91-2.06-5.42-4.99-5.42z" fill="#fc5d3d"/><path d="m171.521 224.471h-70.697c-1.381 0-2.5-1.119-2.5-2.5s1.119-2.5 2.5-2.5h70.697c22.941 0 42.671-15.584 47.979-37.897.319-1.344 1.666-2.175 3.011-1.854 1.344.32 2.174 1.668 1.854 3.011-5.847 24.576-27.578 41.74-52.844 41.74zm-80.698 0h-6.343c-1.381 0-2.5-1.119-2.5-2.5s1.119-2.5 2.5-2.5h6.343c1.381 0 2.5 1.119 2.5 2.5s-1.119 2.5-2.5 2.5z" fill="#ffcbc2"/><path d="m138.637 60.435c-3.28 2.26-3.703 6.941-.891 9.751l25.448 25.449c2.81 2.805 7.488 2.397 9.751-.892l9.661-14.022c49.795-44.164 42.127-37.366 45.9-40.704.001-.001.002-.002.002-.002 2.987-2.653 3.117-7.283.303-10.095l-25.344-25.346c-2.866-2.862-7.487-2.651-10.104.296l-40.713 45.911zm20.308 23.878-9.878-9.876c4.795-3.412 7.929-.279 9.042.834 1.114 1.114 4.248 4.248.836 9.042zm9.883 7.594c-.483.7-1.484.805-2.099.191l-4.228-4.228c4.38-5.645 3.786-11.493-.857-16.135-4.823-4.824-10.725-5.08-16.136-.857l-4.227-4.228c-.604-.606-.516-1.611.191-2.099l12.55-8.646 23.451 23.452zm28.274-83.718c.679-.764 1.958-.951 2.83-.079l25.345 25.347c.789.787.745 2.08-.088 2.82-1.638 1.448-1.627 1.438-2.86 2.531h-52.38zm-31.587 35.62h51.176l-35.871 31.814-23.063-23.064z"/><path d="m180.553 50.312c-.978-.976-2.56-.974-3.535.004l-.451.452c-.976.978-.974 2.56.004 3.535.971.969 2.555.979 3.535-.004l.451-.452c.975-.978.973-2.56-.004-3.535z"/><path d="m194.437 54.544.451-.452c.976-.978.974-2.56-.004-3.535-.979-.977-2.561-.973-3.535.004l-.451.452c-.976.978-.974 2.56.004 3.535.97.968 2.554.979 3.535-.004z"/><path d="m181.582 66.718c.977.977 2.559.977 3.535 0l.451-.451c.977-.977.977-2.559 0-3.535s-2.559-.977-3.535 0l-.451.451c-.977.976-.977 2.558 0 3.535z"/><path d="m150.791 99.16-.354.354c-.977.977-.977 2.559 0 3.535.977.977 2.559.977 3.535 0l.354-.354c.977-.977.977-2.559 0-3.535s-2.558-.976-3.535 0z"/><path d="m139.155 100.743-.354.354c-.977.977-.977 2.559 0 3.535.977.977 2.559.977 3.535 0l.354-.354c.977-.977.977-2.559 0-3.535s-2.558-.976-3.535 0z"/><path d="m144.275 92.641c.975-.978.973-2.561-.005-3.536s-2.561-.972-3.536.005l-.353.354c-.975.978-.973 2.561.005 3.536.984.98 2.568.966 3.536-.005z"/><path d="m128.751 91.04c-.978.976-.979 2.559-.005 3.536.969.971 2.553.984 3.536.005l.354-.353c.978-.976.979-2.559.005-3.536-.976-.978-2.559-.979-3.536-.005z"/><path d="m133.866 82.943.354-.354c.977-.977.977-2.559 0-3.535s-2.559-.977-3.535 0l-.354.354c-.977.977-.977 2.559 0 3.535.977.977 2.559.977 3.535 0z"/><path d="m230.109 167.649h-3.016c-1.743-18.963-23.141-29.747-39.044-19.819-4.436-7.095-14.223-9.174-21.17-4.17-4.679-7.962-14.44-12.204-23.96-9.221-4.106-12.503-17.558-19.321-30.101-15.21-1.348.449-2.015 1.884-1.59 3.16.42 1.28 1.87 2.021 3.16 1.59 10.805-3.544 22.235 3.211 24.37 14.3.296 1.614 2.063 2.497 3.54 1.78 8.438-4.101 18.285.137 21.44 8.601.665 1.761 2.989 2.199 4.25.739 4.935-5.818 14.207-4.053 16.76 3.03.57 1.607 2.579 2.181 3.92 1.1 12.755-10.25 31.597-1.687 33.385 14.12h-184.729c2.161-24.665 30.291-28.288 40.865-11.21.977 1.593 3.274 1.579 4.25.011 3.439-5.51 9.858-8.484 16.63-7.03 1.772.399 3.424-1.205 2.971-3.04-.843-3.396-.768-6.955.34-10.351.415-1.245-.24-2.696-1.6-3.149-1.301-.42-2.74.33-3.15 1.61-1.043 3.179-1.347 6.371-1.05 9.579-6.618-.208-12.296 2.476-16.21 6.841-14.56-17.913-45.993-11.44-48.062 16.739h-6.418c-4.578.012-7.955 4.079-7.479 8.16v.01c.64 7.53 2.54 14.83 5.649 21.7.55 1.21 2.09 1.79 3.311 1.24 1.25-.57 1.81-2.05 1.239-3.31-2.88-6.36-4.64-13.131-5.22-20.101-.014-.057-.01-.146-.01-.21 0-1.37 1.13-2.49 2.51-2.49h204.22c1.619 0 2.686 1.5 2.5 2.721-2.652 31.477-29.057 56.1-61.09 56.1h-87.04c-16.938 0-33.385-6.918-45.34-20.04-.89-.979-2.55-1.06-3.53-.17-1.02.93-1.09 2.52-.159 3.54 10.961 12.046 25.929 19.675 42.301 21.312v9.85c0 4.136 3.364 7.5 7.5 7.5h85.5c4.136 0 7.5-3.364 7.5-7.5v-9.847c32.02-3.223 56.716-28.953 59.339-60.334.392-4.224-2.998-8.119-7.482-8.131zm-56.858 78.312c0 1.379-1.121 2.5-2.5 2.5h-85.5c-1.379 0-2.5-1.121-2.5-2.5v-9.513c.584.016 1.161.023 1.729.023h87.04c.568 0 1.146-.008 1.73-.023v9.513z"/><path d="m33.25 203.85c-.73-1.109-2.351-1.45-3.46-.71-1.15.76-1.471 2.311-.721 3.46.011.01.011.01.011.01.739 1.102 2.234 1.49 3.46.71 1.149-.76 1.47-2.31.72-3.46 0-.001-.01-.001-.01-.01z"/><path d="m103.42 125.04c0 .01-.01.01-.01.01-1.574 1.589-.424 4.27 1.77 4.27.67 0 1.3-.26 1.771-.739.979-.98.97-2.561-.011-3.53-.94-.951-2.581-.942-3.52-.011z"/><path d="m121.383 141.128v-2.003c0-1.381-1.119-2.5-2.5-2.5s-2.5 1.119-2.5 2.5v2.003c0 1.381 1.119 2.5 2.5 2.5s2.5-1.119 2.5-2.5z"/><path d="m150.587 150.722c.977-.977.977-2.559 0-3.535l-1.417-1.417c-.977-.977-2.559-.977-3.535 0s-.977 2.559 0 3.535l1.417 1.417c.976.976 2.558.976 3.535 0z"/><path d="m106.241 155.703c.977.977 2.559.977 3.535 0l1.417-1.417c.977-.977.977-2.559 0-3.535s-2.559-.977-3.535 0l-1.417 1.417c-.976.977-.976 2.559 0 3.535z"/><path d="m56.899 151.943c-.977.977-.977 2.559 0 3.535l1.417 1.417c.977.977 2.559.977 3.535 0 .977-.977.977-2.559 0-3.535l-1.417-1.417c-.976-.976-2.558-.976-3.535 0z"/><path d="m159.261 156.896 1.417-1.417c.977-.977.977-2.559 0-3.535s-2.559-.977-3.535 0l-1.417 1.417c-.977.977-.977 2.559 0 3.535.976.976 2.558.976 3.535 0z"/><path d="m206.16 161.337 1.417-1.417c.977-.977.977-2.559 0-3.535s-2.559-.977-3.535 0l-1.417 1.417c-.977.977-.977 2.559 0 3.535.977.977 2.559.977 3.535 0z"/></g></svg>