<svg viewBox="0 0 512 512" xmlns="http://www.w3.org/2000/svg"><g id="Filled_outline" data-name="Filled outline"><path d="m186.661 209.483a34.4 34.4 0 0 0 -20.466-1.591 20.35 20.35 0 0 1 -21.389-8.517 34.579 34.579 0 0 0 -57.665.251l-.038.059a8.8 8.8 0 0 1 -11.714 3.056 34.572 34.572 0 1 0 -25.667 63.553 9.025 9.025 0 0 1 6.754 10.347l-.015.08a34.586 34.586 0 0 0 41.718 39.823 20.349 20.349 0 0 1 21.389 8.516 34.565 34.565 0 0 0 39.832 13.54 21.076 21.076 0 0 1 22.955 6.256 34.408 34.408 0 0 0 13.545 9.714c25.7 10.23 100.1-27.126 100.1-27.126s-28.383-78.284-54.079-88.516a34.414 34.414 0 0 0 -16.52-2.256 21.075 21.075 0 0 1 -20.973-11.235 34.418 34.418 0 0 0 -17.767-15.954z" fill="#58853f"/><path d="m188.861 135.123a34.4 34.4 0 0 0 -19.566-6.212 20.349 20.349 0 0 1 -18.886-13.166 34.58 34.58 0 0 0 -56.209-12.894l-.05.048a8.8 8.8 0 0 1 -12.1.307 34.572 34.572 0 1 0 -39.471 56.034 9.026 9.026 0 0 1 4.22 11.614l-.033.074a34.585 34.585 0 0 0 31.547 48.28 20.35 20.35 0 0 1 18.887 13.166 34.566 34.566 0 0 0 35.7 22.256 21.073 21.073 0 0 1 20.926 11.321 34.422 34.422 0 0 0 10.974 12.549c22.689 15.817 103.646-3.607 103.646-3.607s-9.8-82.692-32.49-98.509a34.4 34.4 0 0 0 -15.571-5.96 21.078 21.078 0 0 1 -17.862-15.719 34.423 34.423 0 0 0 -13.662-19.582z" fill="#649441"/><path d="m272.998 268.313-48.252-33.363-9.789-54.815-15.75 2.812 6.997 39.183-32.45-22.437-9.848-55.147-15.75 2.812 7.057 39.515-26.785-18.52-8.181-45.814-15.75 2.813 5.389 30.181-49.336-34.113-9.1 13.16 48.035 33.213-28.05 5.009 2.812 15.75 43.919-7.843 26.994 18.665-37.972 6.78 2.812 15.75 53.841-9.613 32.703 22.612-38.306 6.84 2.813 15.75 54.173-9.674 48.674 33.655z" fill="#72a64e"/><path d="m328 48-24.93 62.81-31.226-6.997 32.737-61.061z" fill="#6a9c46"/><path d="m281.161 37.505-9.317 66.308 31.226 6.997 1.511-68.058z" fill="#79ad54"/><path d="m318.07 135.52a36.881 36.881 0 0 1 -1.66 10.94l-40.42 130.53a25.995 25.995 0 0 1 -50.57-11.33l5.6-39.58 2.25-15.89 3.38-23.87 2.25-15.88 3.37-23.86 2.25-15.88.05-.34a36.933 36.933 0 0 1 73.5 5.16z" fill="#f07800"/><path d="m280.42 138.53-3.41 15.63-34.74-7.58 2.25-15.88z" fill="#e66b00"/><path d="m238.9 170.44 32.76 7.12-3.39 15.63-31.62-6.87z" fill="#e66b00"/><path d="m262.91 216.59-3.38 15.64-28.51-6.15 2.25-15.89z" fill="#e66b00"/><path d="m88.156 264c-.095-2.654-.156-5.319-.156-8 0-106.039 75.216-192 168-192s168 85.961 168 192c0 2.681-.061 5.346-.156 8h40.019c.081-2.657.137-5.321.137-8 0-128.13-93.125-232-208-232s-208 103.87-208 232c0 2.679.056 5.343.136 8z" fill="#8c5237"/><path d="m252.47 153.52a34.408 34.408 0 0 0 -9.814-18.031 20.35 20.35 0 0 1 -4.508-22.576 34.578 34.578 0 0 0 -31.619-48.224h-.069a8.8 8.8 0 0 1 -8.943-8.159 34.572 34.572 0 1 0 -67.28 13.09 9.023 9.023 0 0 1 -5 11.3l-.075.032a34.587 34.587 0 0 0 -10.675 56.677 20.347 20.347 0 0 1 4.513 22.576 34.568 34.568 0 0 0 10.341 40.775 21.077 21.077 0 0 1 7.257 22.659 34.4 34.4 0 0 0 -.769 16.657c5.415 27.123 77.27 69.172 77.27 69.172s50.194-66.443 44.778-93.566a34.4 34.4 0 0 0 -7.106-15.083 21.079 21.079 0 0 1 -2-23.71 34.42 34.42 0 0 0 3.699-23.589z" fill="#79ad54"/><path d="m424 82.622-49.399 63.433-27.078-17.052 56.168-59.17z" fill="#6a9c46"/><path d="m383.382 57.044-35.859 71.959 27.078 17.052 29.09-76.222z" fill="#79ad54"/><path d="m375.23 184.11-81.8 109.45a26 26 0 0 1 -43.86-27.61l18.83-35.98 7.45-14.24 11.14-21.29 7.45-14.23 11.15-21.31 7.34-14.02c.04-.07.07-.14.11-.21a36.952 36.952 0 0 1 36.35-19.42c.5.06 1 .12 1.5.2a36.677 36.677 0 0 1 14.43 5.31h.01a36.736 36.736 0 0 1 11.02 10.71c.29.42.56.85.82 1.28a36.927 36.927 0 0 1 -1.94 41.36z" fill="#f98500"/><path d="m344.08 164.65-8.66 13.45-29.83-19.2 7.34-14.02c.04-.07.07-.14.11-.21z" fill="#eb7206"/><path d="m322.77 198.51-8.68 13.44-27.1-17.51 7.45-14.23z" fill="#eb7206"/><path d="m301.47 232.36-8.71 13.42-24.36-15.81 7.45-14.24z" fill="#eb7206"/><path d="m376 184h40a16 16 0 0 1 16 16v8a0 0 0 0 1 0 0h-72a0 0 0 0 1 0 0v-8a16 16 0 0 1 16-16z" fill="#79ad54"/><path d="m433.765 155.556v-19.556c-33.265 0-57.765 26.266-57.765 58.667v37.333h50.639v-27.556l-5.933-11.455c-12.706-16.989-7.706-37.433 13.059-37.433z" fill="#79ad54"/><path d="m352.392 312a20.062 20.062 0 0 1 -19.98-16.341l-12.026-69.659c-2.831-16.4 10.268-31.329 27.49-31.329 15.391 0 27.868 12.046 27.868 26.905v67.883c0 12.447-10.455 22.541-23.352 22.541z" fill="#fcac1f"/><path d="m439.608 312c-12.9 0-23.352-10.094-23.352-22.545v-67.883c0-14.859 12.477-26.9 27.868-26.9 17.222 0 30.321 14.929 27.49 31.329l-12.026 69.663a20.062 20.062 0 0 1 -19.98 16.336z" fill="#fcac1f"/><path d="m393 194.667h6a27.383 27.383 0 0 1 27.383 27.383v60.1a29.854 29.854 0 0 1 -29.853 29.85h-1.06a29.854 29.854 0 0 1 -29.854-29.854v-60.1a27.383 27.383 0 0 1 27.384-27.379z" fill="#ffb531"/><path d="m240.127 204.064-13.311-8.878-21.841 32.747-7.755-38.836 30.721-46.059-13.31-8.879-21.841 32.746-6.4-32.053 25.295-37.923-13.311-8.879-16.415 24.61-9.757-48.865-15.689 3.133 9.758 48.87-24.607-16.412-8.879 13.31 37.915 25.29 6.401 32.058-32.741-21.838-8.879 13.311 46.05 30.714 7.755 38.84-32.741-21.839-8.879 13.311 46.05 30.715 11.536 57.776 15.689-3.133-11.535-57.776z" fill="#89ba66"/><path d="m464 304-2.09 16-1.04 8-2.09 16-3.13 24-2.08 16-3.13 24-2.09 16-1.08 8.28a63.995 63.995 0 0 1 -63.46 55.72h-255.62a63.939 63.939 0 0 1 -63.46-55.72l-1.08-8.28-2.09-16-3.13-24-2.08-16-3.13-24-2.09-16-1.04-8-2.09-16z" fill="#92563a"/><path d="m464 304-2.09 16-1.04 8-2.09 16-3.13 24-2.08 16-3.13 24-2.09 16-1.08 8.28a63.995 63.995 0 0 1 -63.46 55.72h-255.62a63.792 63.792 0 0 1 -40.33-14.32c108.36-16.65 228.18-65.61 315.38-169.68z" fill="#8c5237"/><path d="m488 284a20.007 20.007 0 0 1 -20 20h-424a20 20 0 0 1 0-40h424a19.994 19.994 0 0 1 20 20z" fill="#a8684a"/><g fill="#78462f"><path d="m224 328h64v16h-64z"/><path d="m128 328h64v16h-64z"/><path d="m96 328v16h-42.78l-2.09-16z"/><path d="m320 328h64v16h-64z"/><path d="m460.87 328-2.09 16h-42.78v-16z"/><path d="m224 368h64v16h-64z"/><path d="m128 368h64v16h-64z"/><path d="m96 368v16h-37.57l-2.08-16z"/><path d="m320 368h64v16h-64z"/><path d="m455.65 368-2.08 16h-37.57v-16z"/><path d="m224 408h64v16h-64z"/><path d="m128 408h64v16h-64z"/><path d="m96 408v16h-32.35l-2.09-16z"/><path d="m320 408h64v16h-64z"/><path d="m450.44 408h-34.44v16h32.35z"/><path d="m224 448h64v16h-64z"/><path d="m128 448h64v16h-64z"/><path d="m96 448v16h-17.77a64.118 64.118 0 0 1 -9.38-16z"/><path d="m320 448h64v16h-64z"/><path d="m443.15 448a64.118 64.118 0 0 1 -9.38 16h-17.77v-16z"/></g><path d="m464 304-2.09 16h-411.82l-2.09-16z" fill="#8c5237"/><path d="m224 328h64v16h-64z"/><path d="m128 328h64v16h-64z"/><path d="m320 328h64v16h-64z"/><path d="m224 368h64v16h-64z"/><path d="m128 368h64v16h-64z"/><path d="m320 368h64v16h-64z"/><path d="m224 408h64v16h-64z"/><path d="m128 408h64v16h-64z"/><path d="m320 408h64v16h-64z"/><path d="m224 448h64v16h-64z"/><path d="m128 448h64v16h-64z"/><path d="m320 448h64v16h-64z"/><path d="m496 284a28.044 28.044 0 0 0 -21.58-27.249l5.074-29.395a34.209 34.209 0 0 0 -15.094-34.565c-1.837-7.492-4-14.941-6.478-22.182l-15.134 5.191c1.233 3.6 2.378 7.256 3.447 10.94-.7-.039-1.4-.065-2.115-.065a36.531 36.531 0 0 0 -16.029 3.677l-.533-1.03a17.9 17.9 0 0 1 -2.048-8.3 18.924 18.924 0 0 1 13.45-17.845 8 8 0 0 0 5.55-7.615v-19.562a8 8 0 0 0 -8-8 69.9 69.9 0 0 0 -37.76 10.989c-1.272-2-2.567-3.982-3.9-5.922l15.34-19.7c2.363 3.2 4.655 6.465 6.843 9.787l13.362-8.8c-3.166-4.8-6.525-9.513-10.02-14.063l9.935-12.756a8 8 0 0 0 -2.048-11.686l-40.62-25.58a8 8 0 0 0 -11.423 3.2l-19.268 38.669c-29.635-23.675-64.328-36.138-100.951-36.138a156.567 156.567 0 0 0 -33.877 3.723 42.03 42.03 0 0 0 -15.593-3.033 1.093 1.093 0 0 0 -.128 0 .829.829 0 0 1 -.9-.633 43.794 43.794 0 0 0 -1.278-8.134 42.172 42.172 0 0 0 -2.733-7.494 180.094 180.094 0 0 1 54.509-8.429 183.669 183.669 0 0 1 99.738 29.812l8.682-13.439a199.617 199.617 0 0 0 -108.42-32.373 196.074 196.074 0 0 0 -64.59 10.917 42.555 42.555 0 0 0 -70.157 40 41.34 41.34 0 0 0 1.39 5.209 1.054 1.054 0 0 1 -.584 1.448 42.593 42.593 0 0 0 -13.142 69.793 12.1 12.1 0 0 1 .981 1.086c-3.137 5.294-6.067 10.765-8.717 16.329a216.875 216.875 0 0 0 -18.662 61.338c-.008.051-.015.1-.022.153a228.177 228.177 0 0 0 -2.497 33.727h-24a251.186 251.186 0 0 1 4.418-47.021 239.12 239.12 0 0 1 21.882-64.079c2.951-5.773 6.176-11.473 9.585-16.942l-13.575-8.458c-2.054 3.294-4.036 6.671-5.947 10.091l-11.813-8.171-9.1 13.16 13.508 9.339q-5.265 11.063-9.461 22.637a17.218 17.218 0 0 0 -9.23-14.415 26.586 26.586 0 0 1 -8.417-40.2 26.864 26.864 0 0 1 34.661-5.981l8.418-13.606a42.571 42.571 0 0 0 -46.69 71.16c1.529 1.063 4.636 2.814 4.636 2.814a1.373 1.373 0 0 1 .656.669 1.327 1.327 0 0 1 -.16.883 42.728 42.728 0 0 0 4.684 41.72 267.7 267.7 0 0 0 -4.055 46.4v.29a28 28 0 0 0 4 55.71h410.889l-2.089 16h-36.8v16h34.715l-3.13 24h-31.585v16h29.5l-3.131 24h-26.369v16h24.281a82.444 82.444 0 0 1 -5.9 24h-18.381v16h6.917a55.931 55.931 0 0 1 -39.111 16h-255.612a55.934 55.934 0 0 1 -39.112-16h6.918v-16h-18.381c-5.119-9-5.9-24-5.9-24h24.281v-16h-26.364l-3.127-24h29.491v-16h-31.575l-3.144-24.132 34.689.132.06-16-43.83-.167h-.03a8 8 0 0 0 -7.933 9.033l12.563 96.446a72.187 72.187 0 0 0 71.394 62.688h255.612a72.187 72.187 0 0 0 71.4-62.688l15.845-121.481a28.036 28.036 0 0 0 24.949-27.831zm-32-62.49a18.518 18.518 0 0 1 -.273 3.129l-5.415 31.361h-23.932v-33.95a35.13 35.13 0 0 0 -3.237-14.743 20.263 20.263 0 0 1 12.977-4.637c10.962 0 19.88 8.451 19.88 18.84zm-188.962 13.027 18.208 10.693 8.1-13.8-18.882-11.089 11.141-21.29 10.926 6.417 8.1-13.8-11.6-6.813 11.143-21.292 21.58 12.677 8.1-13.8-22.256-13.074s16.345-25.895 41.652-12.366c12.693 6.471 17.75 25.5 7.5 41.75l-7.341 10.482a36.689 36.689 0 0 0 -13.529-2.562 36.147 36.147 0 0 0 -27.759 12.79 34.21 34.21 0 0 0 -7.615 27.9l3.831 22.192-4.816 6.448h-47.715zm58.65 21.463-5.416-31.365a18 18 0 0 1 4.09-14.871 20.536 20.536 0 0 1 28.5-2.474 35.138 35.138 0 0 0 -3.245 14.76v33.95zm39.932-33.95a19.389 19.389 0 0 1 19.38-19.38h6a19.379 19.379 0 0 1 14.878 6.967 13.679 13.679 0 0 1 .844 1.091c.021.031.044.061.065.092a19.158 19.158 0 0 1 3.593 11.23v33.95h-44.76zm54.89-71.8a34.658 34.658 0 0 0 -19 30.774 33.638 33.638 0 0 0 .856 7.521 35.353 35.353 0 0 0 -11.366-1.875h-6a35.278 35.278 0 0 0 -8.771 1.114c3.151-22.176 21.3-39.832 44.281-43.2zm-27.369-51.3 6.545-17.15 4.569 2.878zm-14.541-30.429 7.28 4.583-20.45 53.585a46.023 46.023 0 0 0 -3.833-2.7 87.428 87.428 0 0 0 -8.55-4.193zm-42.08 48.569a45.06 45.06 0 0 0 -32.5 15.1c-.074.083-.145.166-.215.252a44.518 44.518 0 0 0 -5.965 8.734l-39.73 75.915c-.093-.944-2.61-13.214-9.143-21.328a13.037 13.037 0 0 1 -2.683-5.7l13.936 3.125 3.5-15.614-13.082-2.933c4.612-13.64 1.433-23.767 1.3-24.3l17.02 3.81 3.5-15.613-28.074-6.285.107-.765c1.665-11.746 16.842-24.877 28.346-24.877 13.33 0 24.056 12 25.865 15.415l14.141-7.487a44.867 44.867 0 0 0 -6.832-9.6l6.835-17.239a156.222 156.222 0 0 1 28.791 19.114zm-49.056-24.134a90.6 90.6 0 0 0 -13.687-2.348l2.223-15.819q5.962 1.2 11.8 2.909zm-27.306-20.431-2.947 21a44.7 44.7 0 0 0 -16.566 10.927 42.731 42.731 0 0 0 -8.773-31.518 140.954 140.954 0 0 1 16.128-.934q6.122 0 12.158.525zm-140.013 15.849a.8.8 0 0 1 .149-.06c6.206-1.814 13.206-8.064 10.146-18.829-.216-.762-5.19-16.735 2.958-26.368 4.8-5.67 10.779-9.906 18.182-10.887 8.888-1.169 17.465 2.485 23.659 9.16 4.511 4.86 6.2 13.943 6.295 15.62a16.793 16.793 0 0 0 16.858 15.68h.108a26.124 26.124 0 0 1 11.252 2.571l.13.063a26.546 26.546 0 0 1 12.923 34.418 28.405 28.405 0 0 0 6.279 31.485c.268.259 6.9 8.457 7.666 14.773 1 8.25-4.385 20-4.969 21.592a29.407 29.407 0 0 0 -1.7 11.741 36.025 36.025 0 0 0 6.519 16.577 31.981 31.981 0 0 1 5.4 12.84c2.333 17.25-12.055 36.982-12.2 37.25h-27.221l-1.174-5.875 30.722-46.061-13.311-8.878-21.842 32.749-7.75-38.843 30.717-46.054-13.31-8.879-21.838 32.741-6.4-32.052 25.292-37.918-13.311-8.88-16.414 24.608-9.754-48.864-15.691 3.133 9.756 48.872-24.607-16.413-8.879 13.31 37.92 25.293 6.4 32.058-32.745-21.841-8.879 13.311 46.054 30.716 7.749 38.836-32.739-21.837-8.879 13.311 46.049 30.714.548 2.743h-39.263c-1.279-1.36-2.468-2.685-3.527-3.952-.074-.088-.149-.174-.226-.258-5.4-6.484-7.1-10.675-7.577-13.062a26.3 26.3 0 0 1 .579-12.79 28.856 28.856 0 0 0 -1.213-19.938 29.359 29.359 0 0 0 -8.744-11.3 26.529 26.529 0 0 1 -9.586-15.642c-.551-2.756-.706-10.305 1.645-15.687a28.314 28.314 0 0 0 .239-21.735 27.962 27.962 0 0 0 -6.532-9.748 26.349 26.349 0 0 1 -7.533-13.851c-1.336-6.697.475-21.704 15.62-29.663zm-18.983 94.469a42.515 42.515 0 0 0 11.338 20.935l-13.314 2.377 2.814 15.75 19.44-3.47a13.059 13.059 0 0 1 -.514 2.922 42.735 42.735 0 0 0 -.937 20.509 30.079 30.079 0 0 0 1.447 4.913 26.55 26.55 0 0 1 -24.744-17.224 28.219 28.219 0 0 0 -5.683-9.186 202.523 202.523 0 0 1 10.153-37.526zm-12.95 63.826a42.592 42.592 0 0 0 9.011 8.473c.424.3.857.578 1.291.858h-10.514c0-3.112.076-6.224.212-9.331zm371.788 49.331h-424a12 12 0 0 1 0-24h424a12 12 0 0 1 0 24z"/></g></svg>